<svg xmlns="http://www.w3.org/2000/svg" width="80" height="15" version="1"><defs><clipPath id="a"><path stroke-width=".922" d="M171.998 239.12h20.614v12.484h-20.614z"/></clipPath></defs><path fill="#fff" stroke="#000" stroke-width="1.042" d="M328.5 412.862h80v15h-80z" transform="matrix(.9875 0 0 .93335 -323.9 -384.812)"/><path d="M1.975 1.933h76.038v11.2H1.975z"/><path d="M1.975 1.933v11.2h20.08c1.293-1.634 2.165-3.532 2.165-5.6 0-2.054-.857-3.973-2.134-5.6H1.975z" fill="#abb1aa"/><g transform="matrix(.94924 0 0 .89719 -161.127 -212.602)" clip-path="url(#a)"><path d="M190.064 245.362a7.047 7.047 0 0 1-14.094.009v-.009a7.047 7.047 0 1 1 14.094-.008v.008z" fill="#fff"/><path d="M188.746 239.622c1.562 1.563 2.344 3.477 2.344 5.74 0 2.264-.768 4.157-2.304 5.68-1.63 1.603-3.556 2.405-5.779 2.405-2.196 0-4.089-.795-5.678-2.385-1.59-1.59-2.385-3.49-2.385-5.7s.795-4.123 2.385-5.74c1.549-1.563 3.442-2.344 5.678-2.344 2.264 0 4.176.781 5.739 2.344zm-10.365 1.052c-1.321 1.334-1.982 2.897-1.982 4.69 0 1.793.654 3.343 1.962 4.65 1.307 1.308 2.864 1.961 4.67 1.961s3.376-.66 4.71-1.98c1.268-1.228 1.901-2.77 1.901-4.63 0-1.847-.644-3.414-1.931-4.701-1.287-1.288-2.847-1.931-4.68-1.931-1.833 0-3.383.647-4.65 1.94zm3.477 3.902c-.202-.44-.504-.66-.907-.66-.713 0-1.07.479-1.07 1.438 0 .96.357 1.439 1.07 1.439.47 0 .806-.234 1.008-.702l.987.526c-.47.836-1.177 1.255-2.118 1.255-.727 0-1.308-.223-1.745-.668-.438-.445-.656-1.06-.656-1.842 0-.769.225-1.38.676-1.831.45-.453 1.012-.679 1.684-.679.996 0 1.709.393 2.14 1.176l-1.07.548zm4.646 0c-.202-.44-.498-.66-.889-.66-.727 0-1.09.479-1.09 1.438 0 .96.363 1.439 1.09 1.439.471 0 .801-.234.99-.702l1.01.526c-.47.836-1.176 1.255-2.116 1.255-.725 0-1.306-.223-1.742-.668-.436-.445-.654-1.06-.654-1.842 0-.769.221-1.38.664-1.831.443-.453 1.007-.679 1.692-.679.994 0 1.706.393 2.135 1.176l-1.09.548z"/></g><path d="M29.052 6.901c.242 0 .426-.05.551-.15.126-.1.188-.248.188-.443 0-.192-.062-.338-.188-.438-.125-.103-.309-.154-.551-.154h-.851V6.9h.851m.052 2.45c.309 0 .54-.062.695-.184.157-.123.236-.308.236-.556 0-.242-.077-.423-.232-.543-.154-.123-.387-.184-.7-.184h-.902V9.35h.903m1.43-2.014c.33.09.586.256.768.499.18.243.271.54.271.893 0 .54-.194.942-.583 1.207-.389.266-.98.398-1.774.398h-2.553v-5.6h2.309c.828 0 1.428.118 1.798.353.373.235.56.611.56 1.129 0 .272-.068.505-.204.697-.136.19-.333.332-.592.424m.905-2.603h1.683l1.358 1.995 1.359-1.995h1.686l-2.274 3.24v2.36h-1.538v-2.36l-2.274-3.24m5.255 2.843h2.51v1.092h-2.51V7.576m3.712-2.843h1.718l2.17 3.84v-3.84h1.458v5.6h-1.718l-2.17-3.84v3.84h-1.458v-5.6M48.8 5.825v3.417h.551c.63 0 1.109-.147 1.439-.44.333-.292.5-.717.5-1.275 0-.555-.166-.977-.496-1.267-.33-.29-.811-.435-1.443-.435h-.551m-1.538-1.092h1.622c.906 0 1.58.061 2.022.184.445.12.826.325 1.143.615a2.4 2.4 0 0 1 .623.874c.136.33.204.704.204 1.121 0 .423-.068.8-.204 1.133a2.4 2.4 0 0 1-.623.874c-.32.29-.704.497-1.151.619-.448.12-1.12.18-2.014.18h-1.622v-5.6" font-size="8.259" font-weight="700" fill="#fff" font-family="Bitstream Vera Sans"/></svg>